<mxfile host="app.diagrams.net" modified="2021-12-10T20:39:00.381Z" agent="5.0 (Windows NT 10.0; Win64; x64) AppleWebKit/537.36 (KHTML, like Gecko) Chrome/96.0.4664.93 Safari/537.36" etag="ZrRYeRke5woC02wk0XAB" version="15.9.4" type="github" pages="3">
  <diagram id="RIZV2CYgKsoqcWHlDbk7" name="Page-1">
    <mxGraphModel dx="1422" dy="715" grid="1" gridSize="10" guides="1" tooltips="1" connect="1" arrows="1" fold="1" page="1" pageScale="1" pageWidth="850" pageHeight="1100" math="0" shadow="0">
      <root>
        <mxCell id="0" />
        <mxCell id="1" parent="0" />
        <mxCell id="jhlzbFUFrZ9kzbWuyFnt-23" value="" style="edgeStyle=orthogonalEdgeStyle;rounded=0;orthogonalLoop=1;jettySize=auto;html=1;fontSize=14;" parent="1" source="jhlzbFUFrZ9kzbWuyFnt-18" edge="1">
          <mxGeometry relative="1" as="geometry">
            <mxPoint x="415" y="370" as="targetPoint" />
          </mxGeometry>
        </mxCell>
        <mxCell id="jhlzbFUFrZ9kzbWuyFnt-18" value="" style="rounded=0;whiteSpace=wrap;html=1;fontSize=14;align=left;" parent="1" vertex="1">
          <mxGeometry x="295" y="235" width="120" height="60" as="geometry" />
        </mxCell>
        <mxCell id="jhlzbFUFrZ9kzbWuyFnt-19" value="payload" style="text;html=1;resizable=0;autosize=1;align=center;verticalAlign=middle;points=[];fillColor=none;strokeColor=none;rounded=0;fontSize=14;" parent="1" vertex="1">
          <mxGeometry x="325" y="255" width="60" height="20" as="geometry" />
        </mxCell>
        <mxCell id="jhlzbFUFrZ9kzbWuyFnt-29" style="edgeStyle=orthogonalEdgeStyle;rounded=0;orthogonalLoop=1;jettySize=auto;html=1;exitX=0.5;exitY=1;exitDx=0;exitDy=0;fontSize=14;" parent="1" source="jhlzbFUFrZ9kzbWuyFnt-26" edge="1">
          <mxGeometry relative="1" as="geometry">
            <mxPoint x="435" y="370" as="targetPoint" />
            <Array as="points">
              <mxPoint x="495" y="330" />
              <mxPoint x="435" y="330" />
              <mxPoint x="435" y="370" />
            </Array>
          </mxGeometry>
        </mxCell>
        <mxCell id="jhlzbFUFrZ9kzbWuyFnt-26" value="" style="rounded=1;whiteSpace=wrap;html=1;fontSize=14;align=left;" parent="1" vertex="1">
          <mxGeometry x="435" y="235" width="120" height="60" as="geometry" />
        </mxCell>
        <mxCell id="jhlzbFUFrZ9kzbWuyFnt-27" value="harmless file" style="text;html=1;resizable=0;autosize=1;align=center;verticalAlign=middle;points=[];fillColor=none;strokeColor=none;rounded=0;fontSize=14;" parent="1" vertex="1">
          <mxGeometry x="450" y="255" width="90" height="20" as="geometry" />
        </mxCell>
        <mxCell id="jhlzbFUFrZ9kzbWuyFnt-33" style="edgeStyle=orthogonalEdgeStyle;rounded=0;orthogonalLoop=1;jettySize=auto;html=1;fontSize=14;" parent="1" source="jhlzbFUFrZ9kzbWuyFnt-31" target="jhlzbFUFrZ9kzbWuyFnt-34" edge="1">
          <mxGeometry relative="1" as="geometry">
            <mxPoint x="425" y="490" as="targetPoint" />
          </mxGeometry>
        </mxCell>
        <mxCell id="jhlzbFUFrZ9kzbWuyFnt-31" value="" style="ellipse;whiteSpace=wrap;html=1;fontSize=14;align=left;" parent="1" vertex="1">
          <mxGeometry x="355" y="370" width="140" height="80" as="geometry" />
        </mxCell>
        <mxCell id="jhlzbFUFrZ9kzbWuyFnt-32" value="&lt;font style=&quot;font-size: 14px&quot;&gt;&lt;span style=&quot;color: rgba(0 , 0 , 0 , 0.87) ; text-align: left ; background-color: rgb(255 , 255 , 255)&quot;&gt;&lt;font&gt;disguise&lt;/font&gt;&lt;/span&gt;&lt;br&gt;(маскировка)&lt;/font&gt;" style="text;html=1;resizable=0;autosize=1;align=center;verticalAlign=middle;points=[];fillColor=none;strokeColor=none;rounded=0;fontSize=14;" parent="1" vertex="1">
          <mxGeometry x="375" y="390" width="100" height="40" as="geometry" />
        </mxCell>
        <mxCell id="2wit0-qEUfY-p-71M39n-57" style="edgeStyle=orthogonalEdgeStyle;rounded=0;orthogonalLoop=1;jettySize=auto;html=1;exitX=1;exitY=0.5;exitDx=0;exitDy=0;entryX=0;entryY=0.5;entryDx=0;entryDy=0;fontSize=14;" parent="1" source="jhlzbFUFrZ9kzbWuyFnt-34" target="2wit0-qEUfY-p-71M39n-45" edge="1">
          <mxGeometry relative="1" as="geometry">
            <Array as="points">
              <mxPoint x="800" y="510" />
              <mxPoint x="800" y="220" />
            </Array>
          </mxGeometry>
        </mxCell>
        <mxCell id="jhlzbFUFrZ9kzbWuyFnt-34" value="" style="shape=parallelogram;perimeter=parallelogramPerimeter;whiteSpace=wrap;html=1;fixedSize=1;fontSize=14;align=left;" parent="1" vertex="1">
          <mxGeometry x="345" y="490" width="160" height="40" as="geometry" />
        </mxCell>
        <mxCell id="jhlzbFUFrZ9kzbWuyFnt-36" value="trojan" style="text;html=1;resizable=0;autosize=1;align=center;verticalAlign=middle;points=[];fillColor=none;strokeColor=none;rounded=0;fontSize=14;" parent="1" vertex="1">
          <mxGeometry x="400" y="500" width="50" height="20" as="geometry" />
        </mxCell>
        <mxCell id="jhlzbFUFrZ9kzbWuyFnt-45" value="" style="edgeStyle=orthogonalEdgeStyle;rounded=0;orthogonalLoop=1;jettySize=auto;html=1;fontSize=14;" parent="1" source="jhlzbFUFrZ9kzbWuyFnt-41" edge="1">
          <mxGeometry relative="1" as="geometry">
            <mxPoint x="555" y="265" as="targetPoint" />
          </mxGeometry>
        </mxCell>
        <mxCell id="jhlzbFUFrZ9kzbWuyFnt-41" value="Type" style="swimlane;fontStyle=0;childLayout=stackLayout;horizontal=1;startSize=30;horizontalStack=0;resizeParent=1;resizeParentMax=0;resizeLast=0;collapsible=1;marginBottom=0;fontSize=14;align=left;" parent="1" vertex="1">
          <mxGeometry x="605" y="205" width="140" height="120" as="geometry">
            <mxRectangle x="520" y="35" width="50" height="30" as="alternateBounds" />
          </mxGeometry>
        </mxCell>
        <mxCell id="jhlzbFUFrZ9kzbWuyFnt-42" value="exe" style="text;strokeColor=none;fillColor=none;align=left;verticalAlign=middle;spacingLeft=4;spacingRight=4;overflow=hidden;points=[[0,0.5],[1,0.5]];portConstraint=eastwest;rotatable=0;fontSize=14;" parent="jhlzbFUFrZ9kzbWuyFnt-41" vertex="1">
          <mxGeometry y="30" width="140" height="30" as="geometry" />
        </mxCell>
        <mxCell id="jhlzbFUFrZ9kzbWuyFnt-43" value="jpg, bmp, png, gif..." style="text;strokeColor=none;fillColor=none;align=left;verticalAlign=middle;spacingLeft=4;spacingRight=4;overflow=hidden;points=[[0,0.5],[1,0.5]];portConstraint=eastwest;rotatable=0;fontSize=14;" parent="jhlzbFUFrZ9kzbWuyFnt-41" vertex="1">
          <mxGeometry y="60" width="140" height="30" as="geometry" />
        </mxCell>
        <mxCell id="jhlzbFUFrZ9kzbWuyFnt-44" value="docx, ppx, xls..." style="text;strokeColor=none;fillColor=none;align=left;verticalAlign=middle;spacingLeft=4;spacingRight=4;overflow=hidden;points=[[0,0.5],[1,0.5]];portConstraint=eastwest;rotatable=0;fontSize=14;" parent="jhlzbFUFrZ9kzbWuyFnt-41" vertex="1">
          <mxGeometry y="90" width="140" height="30" as="geometry" />
        </mxCell>
        <mxCell id="jhlzbFUFrZ9kzbWuyFnt-51" value="" style="edgeStyle=orthogonalEdgeStyle;rounded=0;orthogonalLoop=1;jettySize=auto;html=1;fontSize=14;entryX=0;entryY=0.5;entryDx=0;entryDy=0;" parent="1" source="jhlzbFUFrZ9kzbWuyFnt-46" target="jhlzbFUFrZ9kzbWuyFnt-18" edge="1">
          <mxGeometry relative="1" as="geometry">
            <mxPoint x="285" y="265" as="targetPoint" />
          </mxGeometry>
        </mxCell>
        <mxCell id="jhlzbFUFrZ9kzbWuyFnt-46" value="Example" style="swimlane;fontStyle=0;childLayout=stackLayout;horizontal=1;startSize=30;horizontalStack=0;resizeParent=1;resizeParentMax=0;resizeLast=0;collapsible=1;marginBottom=0;fontSize=14;align=center;" parent="1" vertex="1">
          <mxGeometry x="105" y="205" width="140" height="120" as="geometry" />
        </mxCell>
        <mxCell id="jhlzbFUFrZ9kzbWuyFnt-47" value="NjRAT, Dark Comet" style="text;strokeColor=none;fillColor=none;align=left;verticalAlign=middle;spacingLeft=4;spacingRight=4;overflow=hidden;points=[[0,0.5],[1,0.5]];portConstraint=eastwest;rotatable=0;fontSize=14;" parent="jhlzbFUFrZ9kzbWuyFnt-46" vertex="1">
          <mxGeometry y="30" width="140" height="30" as="geometry" />
        </mxCell>
        <mxCell id="jhlzbFUFrZ9kzbWuyFnt-48" value="python script" style="text;strokeColor=none;fillColor=none;align=left;verticalAlign=middle;spacingLeft=4;spacingRight=4;overflow=hidden;points=[[0,0.5],[1,0.5]];portConstraint=eastwest;rotatable=0;fontSize=14;" parent="jhlzbFUFrZ9kzbWuyFnt-46" vertex="1">
          <mxGeometry y="60" width="140" height="30" as="geometry" />
        </mxCell>
        <mxCell id="jhlzbFUFrZ9kzbWuyFnt-49" value="msfvenom" style="text;strokeColor=none;fillColor=none;align=left;verticalAlign=middle;spacingLeft=4;spacingRight=4;overflow=hidden;points=[[0,0.5],[1,0.5]];portConstraint=eastwest;rotatable=0;fontSize=14;" parent="jhlzbFUFrZ9kzbWuyFnt-46" vertex="1">
          <mxGeometry y="90" width="140" height="30" as="geometry" />
        </mxCell>
        <mxCell id="jhlzbFUFrZ9kzbWuyFnt-59" value="&lt;b&gt;&lt;font style=&quot;font-size: 24px&quot;&gt;Weaponization&lt;/font&gt;&lt;/b&gt;" style="text;html=1;resizable=0;autosize=1;align=center;verticalAlign=middle;points=[];fillColor=none;strokeColor=none;rounded=0;fontSize=14;" parent="1" vertex="1">
          <mxGeometry x="335" y="190" width="180" height="30" as="geometry" />
        </mxCell>
        <mxCell id="jhlzbFUFrZ9kzbWuyFnt-60" value="&lt;font style=&quot;font-size: 24px&quot;&gt;&lt;b&gt;Delivery&lt;/b&gt;&lt;/font&gt;" style="text;html=1;resizable=0;autosize=1;align=center;verticalAlign=middle;points=[];fillColor=none;strokeColor=none;rounded=0;fontFamily=Helvetica;fontSize=14;" parent="1" vertex="1">
          <mxGeometry x="1052.5" y="205" width="110" height="30" as="geometry" />
        </mxCell>
        <mxCell id="2wit0-qEUfY-p-71M39n-23" style="edgeStyle=orthogonalEdgeStyle;rounded=0;orthogonalLoop=1;jettySize=auto;html=1;exitX=0.5;exitY=1;exitDx=0;exitDy=0;entryX=0;entryY=0.5;entryDx=0;entryDy=0;fontSize=36;" parent="1" source="jhlzbFUFrZ9kzbWuyFnt-61" target="jhlzbFUFrZ9kzbWuyFnt-84" edge="1">
          <mxGeometry relative="1" as="geometry" />
        </mxCell>
        <mxCell id="jhlzbFUFrZ9kzbWuyFnt-61" value="" style="rounded=0;whiteSpace=wrap;html=1;fontFamily=Helvetica;fontSize=24;align=left;" parent="1" vertex="1">
          <mxGeometry x="872.5" y="330" width="115" height="40" as="geometry" />
        </mxCell>
        <mxCell id="jhlzbFUFrZ9kzbWuyFnt-67" value="" style="rounded=0;whiteSpace=wrap;html=1;fontFamily=Helvetica;fontSize=14;align=left;" parent="1" vertex="1">
          <mxGeometry x="1210" y="290" width="115" height="40" as="geometry" />
        </mxCell>
        <mxCell id="2wit0-qEUfY-p-71M39n-60" value="" style="edgeStyle=orthogonalEdgeStyle;rounded=0;orthogonalLoop=1;jettySize=auto;html=1;fontSize=14;entryX=0;entryY=0;entryDx=60;entryDy=80;entryPerimeter=0;exitX=0;exitY=0.5;exitDx=0;exitDy=0;" parent="1" source="jhlzbFUFrZ9kzbWuyFnt-67" target="2wit0-qEUfY-p-71M39n-58" edge="1">
          <mxGeometry relative="1" as="geometry" />
        </mxCell>
        <mxCell id="jhlzbFUFrZ9kzbWuyFnt-68" value="Social network" style="text;html=1;resizable=0;autosize=1;align=center;verticalAlign=middle;points=[];fillColor=none;strokeColor=none;rounded=0;fontFamily=Helvetica;fontSize=14;" parent="1" vertex="1">
          <mxGeometry x="1212.5" y="300" width="110" height="20" as="geometry" />
        </mxCell>
        <mxCell id="2wit0-qEUfY-p-71M39n-59" style="edgeStyle=orthogonalEdgeStyle;rounded=0;orthogonalLoop=1;jettySize=auto;html=1;exitX=1;exitY=0.5;exitDx=0;exitDy=0;entryX=0;entryY=0;entryDx=60;entryDy=80;entryPerimeter=0;fontSize=14;" parent="1" source="jhlzbFUFrZ9kzbWuyFnt-73" target="2wit0-qEUfY-p-71M39n-58" edge="1">
          <mxGeometry relative="1" as="geometry" />
        </mxCell>
        <mxCell id="jhlzbFUFrZ9kzbWuyFnt-73" value="" style="rounded=0;whiteSpace=wrap;html=1;fontFamily=Helvetica;fontSize=14;align=left;" parent="1" vertex="1">
          <mxGeometry x="1050" y="290" width="115" height="40" as="geometry" />
        </mxCell>
        <mxCell id="jhlzbFUFrZ9kzbWuyFnt-74" value="Email" style="text;html=1;resizable=0;autosize=1;align=center;verticalAlign=middle;points=[];fillColor=none;strokeColor=none;rounded=0;fontFamily=Helvetica;fontSize=14;" parent="1" vertex="1">
          <mxGeometry x="1082.5" y="300" width="50" height="20" as="geometry" />
        </mxCell>
        <mxCell id="jhlzbFUFrZ9kzbWuyFnt-79" value="Site-clone" style="text;html=1;resizable=0;autosize=1;align=center;verticalAlign=middle;points=[];fillColor=none;strokeColor=none;rounded=0;fontFamily=Helvetica;fontSize=14;" parent="1" vertex="1">
          <mxGeometry x="890" y="340" width="80" height="20" as="geometry" />
        </mxCell>
        <mxCell id="2wit0-qEUfY-p-71M39n-35" style="edgeStyle=orthogonalEdgeStyle;rounded=0;orthogonalLoop=1;jettySize=auto;html=1;exitX=0.5;exitY=1;exitDx=0;exitDy=0;fontSize=36;" parent="1" source="jhlzbFUFrZ9kzbWuyFnt-84" target="2wit0-qEUfY-p-71M39n-33" edge="1">
          <mxGeometry relative="1" as="geometry" />
        </mxCell>
        <mxCell id="jhlzbFUFrZ9kzbWuyFnt-84" value="&lt;div&gt;&lt;span&gt;Download and&lt;/span&gt;&lt;/div&gt;&lt;div&gt;&lt;span&gt;install the app&lt;/span&gt;&lt;/div&gt;" style="rounded=0;whiteSpace=wrap;html=1;fontFamily=Helvetica;fontSize=14;align=center;" parent="1" vertex="1">
          <mxGeometry x="967.5" y="380" width="120" height="60" as="geometry" />
        </mxCell>
        <mxCell id="tpcuffZ86yL2jSBAKprG-1" value="&lt;font&gt;&lt;span style=&quot;font-size: 36px&quot;&gt;&lt;b&gt;Scheme of&amp;nbsp;&lt;/b&gt;&lt;/span&gt;&lt;b style=&quot;font-size: 36px&quot;&gt;general&amp;nbsp;&lt;/b&gt;&lt;span style=&quot;font-size: 36px&quot;&gt;&lt;b&gt;attack&lt;/b&gt;&lt;/span&gt;&lt;/font&gt;" style="text;html=1;strokeColor=none;fillColor=none;align=center;verticalAlign=middle;whiteSpace=wrap;rounded=0;" parent="1" vertex="1">
          <mxGeometry x="540" y="100" width="452" height="80" as="geometry" />
        </mxCell>
        <mxCell id="2wit0-qEUfY-p-71M39n-1" value="&lt;font style=&quot;font-size: 24px&quot;&gt;&lt;b&gt;Exploitation&lt;/b&gt;&lt;/font&gt;" style="text;html=1;strokeColor=none;fillColor=none;align=center;verticalAlign=middle;whiteSpace=wrap;rounded=0;fontSize=14;" parent="1" vertex="1">
          <mxGeometry x="1050" y="460" width="150" height="40" as="geometry" />
        </mxCell>
        <mxCell id="2wit0-qEUfY-p-71M39n-54" style="edgeStyle=orthogonalEdgeStyle;rounded=0;orthogonalLoop=1;jettySize=auto;html=1;exitX=0;exitY=0;exitDx=40;exitDy=83.5;exitPerimeter=0;entryX=1;entryY=0.5;entryDx=0;entryDy=0;fontSize=14;" parent="1" source="2wit0-qEUfY-p-71M39n-7" target="2wit0-qEUfY-p-71M39n-10" edge="1">
          <mxGeometry relative="1" as="geometry" />
        </mxCell>
        <mxCell id="2wit0-qEUfY-p-71M39n-55" style="edgeStyle=orthogonalEdgeStyle;rounded=0;orthogonalLoop=1;jettySize=auto;html=1;exitX=0;exitY=0;exitDx=40;exitDy=83.5;exitPerimeter=0;entryX=1;entryY=0.5;entryDx=0;entryDy=0;fontSize=14;" parent="1" source="2wit0-qEUfY-p-71M39n-7" target="2wit0-qEUfY-p-71M39n-9" edge="1">
          <mxGeometry relative="1" as="geometry" />
        </mxCell>
        <mxCell id="2wit0-qEUfY-p-71M39n-7" value="&quot;Run as administrator&quot;" style="shape=callout;whiteSpace=wrap;html=1;perimeter=calloutPerimeter;fontSize=14;align=center;position2=0.5;size=23;position=0.25;base=18;direction=south;" parent="1" vertex="1">
          <mxGeometry x="1127.5" y="510" width="190" height="40" as="geometry" />
        </mxCell>
        <mxCell id="2wit0-qEUfY-p-71M39n-8" style="edgeStyle=orthogonalEdgeStyle;rounded=0;orthogonalLoop=1;jettySize=auto;html=1;exitX=0.5;exitY=1;exitDx=0;exitDy=0;fontSize=14;" parent="1" source="2wit0-qEUfY-p-71M39n-9" target="2wit0-qEUfY-p-71M39n-11" edge="1">
          <mxGeometry relative="1" as="geometry" />
        </mxCell>
        <mxCell id="2wit0-qEUfY-p-71M39n-9" value="&lt;span&gt;runs payload&lt;br&gt;&lt;/span&gt;" style="rounded=0;whiteSpace=wrap;html=1;fontSize=14;align=center;" parent="1" vertex="1">
          <mxGeometry x="942.5" y="650" width="170" height="40" as="geometry" />
        </mxCell>
        <mxCell id="2wit0-qEUfY-p-71M39n-10" value="&lt;span&gt;runs harmless file&lt;br&gt;&lt;/span&gt;" style="rounded=0;whiteSpace=wrap;html=1;fontSize=14;align=center;" parent="1" vertex="1">
          <mxGeometry x="942.5" y="580" width="170" height="40" as="geometry" />
        </mxCell>
        <mxCell id="2wit0-qEUfY-p-71M39n-11" value="infection" style="shape=parallelogram;perimeter=parallelogramPerimeter;whiteSpace=wrap;html=1;fixedSize=1;fontSize=14;align=center;" parent="1" vertex="1">
          <mxGeometry x="938.75" y="720" width="177.5" height="40" as="geometry" />
        </mxCell>
        <mxCell id="2wit0-qEUfY-p-71M39n-51" style="edgeStyle=orthogonalEdgeStyle;rounded=0;orthogonalLoop=1;jettySize=auto;html=1;exitX=0;exitY=0.5;exitDx=0;exitDy=0;entryX=0;entryY=0.5;entryDx=0;entryDy=0;fontSize=14;" parent="1" source="2wit0-qEUfY-p-71M39n-33" target="2wit0-qEUfY-p-71M39n-10" edge="1">
          <mxGeometry relative="1" as="geometry">
            <Array as="points">
              <mxPoint x="923" y="530" />
              <mxPoint x="923" y="600" />
            </Array>
          </mxGeometry>
        </mxCell>
        <mxCell id="2wit0-qEUfY-p-71M39n-52" style="edgeStyle=orthogonalEdgeStyle;rounded=0;orthogonalLoop=1;jettySize=auto;html=1;exitX=0;exitY=0.5;exitDx=0;exitDy=0;entryX=0;entryY=0.5;entryDx=0;entryDy=0;fontSize=14;" parent="1" source="2wit0-qEUfY-p-71M39n-33" target="2wit0-qEUfY-p-71M39n-9" edge="1">
          <mxGeometry relative="1" as="geometry">
            <Array as="points">
              <mxPoint x="923" y="530" />
              <mxPoint x="923" y="670" />
            </Array>
          </mxGeometry>
        </mxCell>
        <mxCell id="2wit0-qEUfY-p-71M39n-53" style="edgeStyle=orthogonalEdgeStyle;rounded=0;orthogonalLoop=1;jettySize=auto;html=1;exitX=1;exitY=0.5;exitDx=0;exitDy=0;entryX=0;entryY=0;entryDx=20;entryDy=190;entryPerimeter=0;fontSize=14;" parent="1" source="2wit0-qEUfY-p-71M39n-33" target="2wit0-qEUfY-p-71M39n-7" edge="1">
          <mxGeometry relative="1" as="geometry" />
        </mxCell>
        <mxCell id="2wit0-qEUfY-p-71M39n-33" value="" style="shape=parallelogram;perimeter=parallelogramPerimeter;whiteSpace=wrap;html=1;fixedSize=1;fontSize=14;align=left;" parent="1" vertex="1">
          <mxGeometry x="947.5" y="510" width="160" height="40" as="geometry" />
        </mxCell>
        <mxCell id="2wit0-qEUfY-p-71M39n-34" value="trojan" style="text;html=1;resizable=0;autosize=1;align=center;verticalAlign=middle;points=[];fillColor=none;strokeColor=none;rounded=0;fontSize=14;" parent="1" vertex="1">
          <mxGeometry x="1002.5" y="520" width="50" height="20" as="geometry" />
        </mxCell>
        <mxCell id="2wit0-qEUfY-p-71M39n-42" style="edgeStyle=orthogonalEdgeStyle;rounded=0;orthogonalLoop=1;jettySize=auto;html=1;entryX=0;entryY=0.5;entryDx=0;entryDy=0;fontSize=14;" parent="1" source="2wit0-qEUfY-p-71M39n-38" target="jhlzbFUFrZ9kzbWuyFnt-31" edge="1">
          <mxGeometry relative="1" as="geometry" />
        </mxCell>
        <mxCell id="2wit0-qEUfY-p-71M39n-38" value="Example" style="swimlane;fontStyle=0;childLayout=stackLayout;horizontal=1;startSize=30;horizontalStack=0;resizeParent=1;resizeParentMax=0;resizeLast=0;collapsible=1;marginBottom=0;fontSize=14;" parent="1" vertex="1">
          <mxGeometry x="105" y="350" width="140" height="120" as="geometry" />
        </mxCell>
        <mxCell id="2wit0-qEUfY-p-71M39n-39" value="shelter" style="text;strokeColor=none;fillColor=none;align=left;verticalAlign=middle;spacingLeft=4;spacingRight=4;overflow=hidden;points=[[0,0.5],[1,0.5]];portConstraint=eastwest;rotatable=0;fontSize=14;" parent="2wit0-qEUfY-p-71M39n-38" vertex="1">
          <mxGeometry y="30" width="140" height="30" as="geometry" />
        </mxCell>
        <mxCell id="2wit0-qEUfY-p-71M39n-40" value="script encoder plus" style="text;strokeColor=none;fillColor=none;align=left;verticalAlign=middle;spacingLeft=4;spacingRight=4;overflow=hidden;points=[[0,0.5],[1,0.5]];portConstraint=eastwest;rotatable=0;fontSize=14;" parent="2wit0-qEUfY-p-71M39n-38" vertex="1">
          <mxGeometry y="60" width="140" height="30" as="geometry" />
        </mxCell>
        <mxCell id="2wit0-qEUfY-p-71M39n-41" value="sfx archive" style="text;strokeColor=none;fillColor=none;align=left;verticalAlign=middle;spacingLeft=4;spacingRight=4;overflow=hidden;points=[[0,0.5],[1,0.5]];portConstraint=eastwest;rotatable=0;fontSize=14;" parent="2wit0-qEUfY-p-71M39n-38" vertex="1">
          <mxGeometry y="90" width="140" height="30" as="geometry" />
        </mxCell>
        <mxCell id="2wit0-qEUfY-p-71M39n-47" style="edgeStyle=orthogonalEdgeStyle;rounded=0;orthogonalLoop=1;jettySize=auto;html=1;exitX=0.5;exitY=1;exitDx=0;exitDy=0;entryX=0.5;entryY=0;entryDx=0;entryDy=0;fontSize=14;" parent="1" source="2wit0-qEUfY-p-71M39n-45" target="jhlzbFUFrZ9kzbWuyFnt-61" edge="1">
          <mxGeometry relative="1" as="geometry" />
        </mxCell>
        <mxCell id="2wit0-qEUfY-p-71M39n-48" style="edgeStyle=orthogonalEdgeStyle;rounded=0;orthogonalLoop=1;jettySize=auto;html=1;exitX=0.5;exitY=1;exitDx=0;exitDy=0;entryX=0.5;entryY=0;entryDx=0;entryDy=0;fontSize=14;" parent="1" source="2wit0-qEUfY-p-71M39n-45" target="jhlzbFUFrZ9kzbWuyFnt-67" edge="1">
          <mxGeometry relative="1" as="geometry" />
        </mxCell>
        <mxCell id="2wit0-qEUfY-p-71M39n-49" style="edgeStyle=orthogonalEdgeStyle;rounded=0;orthogonalLoop=1;jettySize=auto;html=1;exitX=0.5;exitY=1;exitDx=0;exitDy=0;entryX=0.5;entryY=0;entryDx=0;entryDy=0;fontSize=14;" parent="1" source="2wit0-qEUfY-p-71M39n-45" target="jhlzbFUFrZ9kzbWuyFnt-73" edge="1">
          <mxGeometry relative="1" as="geometry" />
        </mxCell>
        <mxCell id="2wit0-qEUfY-p-71M39n-45" value="" style="shape=parallelogram;perimeter=parallelogramPerimeter;whiteSpace=wrap;html=1;fixedSize=1;fontSize=14;align=left;" parent="1" vertex="1">
          <mxGeometry x="850" y="200" width="160" height="40" as="geometry" />
        </mxCell>
        <mxCell id="2wit0-qEUfY-p-71M39n-46" value="trojan" style="text;html=1;resizable=0;autosize=1;align=center;verticalAlign=middle;points=[];fillColor=none;strokeColor=none;rounded=0;fontSize=14;" parent="1" vertex="1">
          <mxGeometry x="905" y="210" width="50" height="20" as="geometry" />
        </mxCell>
        <mxCell id="2wit0-qEUfY-p-71M39n-61" style="edgeStyle=orthogonalEdgeStyle;rounded=0;orthogonalLoop=1;jettySize=auto;html=1;exitX=0;exitY=0;exitDx=120;exitDy=30;exitPerimeter=0;entryX=1;entryY=0.5;entryDx=0;entryDy=0;fontSize=14;" parent="1" source="2wit0-qEUfY-p-71M39n-58" target="jhlzbFUFrZ9kzbWuyFnt-84" edge="1">
          <mxGeometry relative="1" as="geometry" />
        </mxCell>
        <mxCell id="2wit0-qEUfY-p-71M39n-63" style="edgeStyle=orthogonalEdgeStyle;rounded=0;orthogonalLoop=1;jettySize=auto;html=1;exitX=0;exitY=0;exitDx=120;exitDy=30;exitPerimeter=0;fontSize=14;" parent="1" source="2wit0-qEUfY-p-71M39n-58" target="jhlzbFUFrZ9kzbWuyFnt-61" edge="1">
          <mxGeometry relative="1" as="geometry">
            <Array as="points">
              <mxPoint x="1110" y="410" />
              <mxPoint x="1110" y="350" />
            </Array>
          </mxGeometry>
        </mxCell>
        <mxCell id="2wit0-qEUfY-p-71M39n-58" value="" style="shape=callout;whiteSpace=wrap;html=1;perimeter=calloutPerimeter;fontSize=14;rotation=-180;size=20;position=0.42;" parent="1" vertex="1">
          <mxGeometry x="1127.5" y="360" width="117.5" height="80" as="geometry" />
        </mxCell>
        <mxCell id="2wit0-qEUfY-p-71M39n-66" value="&quot;Take a look&lt;br&gt;at this...&quot;" style="text;html=1;strokeColor=none;fillColor=none;align=center;verticalAlign=middle;whiteSpace=wrap;rounded=0;fontSize=14;" parent="1" vertex="1">
          <mxGeometry x="1141.25" y="395" width="90" height="30" as="geometry" />
        </mxCell>
      </root>
    </mxGraphModel>
  </diagram>
  <diagram id="AiZ31Qg1dFCBFwaHnzil" name="Page-2">
    <mxGraphModel dx="1422" dy="715" grid="1" gridSize="10" guides="1" tooltips="1" connect="1" arrows="1" fold="1" page="1" pageScale="1" pageWidth="850" pageHeight="1100" math="0" shadow="0">
      <root>
        <mxCell id="Zr-BWSJJQ4udQxX_Z5t2-0" />
        <mxCell id="Zr-BWSJJQ4udQxX_Z5t2-1" parent="Zr-BWSJJQ4udQxX_Z5t2-0" />
        <mxCell id="qtCz4snrWuHsNMm3v-mu-0" value="" style="edgeStyle=orthogonalEdgeStyle;rounded=0;orthogonalLoop=1;jettySize=auto;html=1;fontSize=14;entryX=0.5;entryY=0;entryDx=0;entryDy=0;" parent="Zr-BWSJJQ4udQxX_Z5t2-1" source="qtCz4snrWuHsNMm3v-mu-1" target="qtCz4snrWuHsNMm3v-mu-7" edge="1">
          <mxGeometry relative="1" as="geometry">
            <mxPoint x="430" y="270" as="targetPoint" />
          </mxGeometry>
        </mxCell>
        <mxCell id="qtCz4snrWuHsNMm3v-mu-1" value="" style="rounded=0;whiteSpace=wrap;html=1;fontSize=14;align=left;" parent="Zr-BWSJJQ4udQxX_Z5t2-1" vertex="1">
          <mxGeometry x="260" y="145" width="280" height="55" as="geometry" />
        </mxCell>
        <mxCell id="qtCz4snrWuHsNMm3v-mu-2" value="sublime_text_build_412l_x64_setup.exe" style="text;html=1;resizable=0;autosize=1;align=center;verticalAlign=middle;points=[];fillColor=none;strokeColor=none;rounded=0;fontSize=14;" parent="Zr-BWSJJQ4udQxX_Z5t2-1" vertex="1">
          <mxGeometry x="270" y="162.5" width="260" height="20" as="geometry" />
        </mxCell>
        <mxCell id="qtCz4snrWuHsNMm3v-mu-54" style="edgeStyle=orthogonalEdgeStyle;rounded=0;orthogonalLoop=1;jettySize=auto;html=1;exitX=0.5;exitY=1;exitDx=0;exitDy=0;entryX=1;entryY=0.5;entryDx=0;entryDy=0;fontSize=14;" parent="Zr-BWSJJQ4udQxX_Z5t2-1" source="qtCz4snrWuHsNMm3v-mu-4" target="qtCz4snrWuHsNMm3v-mu-7" edge="1">
          <mxGeometry relative="1" as="geometry" />
        </mxCell>
        <mxCell id="qtCz4snrWuHsNMm3v-mu-4" value="" style="rounded=1;whiteSpace=wrap;html=1;fontSize=14;align=left;" parent="Zr-BWSJJQ4udQxX_Z5t2-1" vertex="1">
          <mxGeometry x="550" y="145" width="290" height="55" as="geometry" />
        </mxCell>
        <mxCell id="qtCz4snrWuHsNMm3v-mu-5" value="sublime_text_build_4121_x64_setup.exe" style="text;html=1;resizable=0;autosize=1;align=center;verticalAlign=middle;points=[];fillColor=none;strokeColor=none;rounded=0;fontSize=14;" parent="Zr-BWSJJQ4udQxX_Z5t2-1" vertex="1">
          <mxGeometry x="560" y="162.5" width="270" height="20" as="geometry" />
        </mxCell>
        <mxCell id="qtCz4snrWuHsNMm3v-mu-6" style="edgeStyle=orthogonalEdgeStyle;rounded=0;orthogonalLoop=1;jettySize=auto;html=1;fontSize=14;" parent="Zr-BWSJJQ4udQxX_Z5t2-1" source="qtCz4snrWuHsNMm3v-mu-7" target="qtCz4snrWuHsNMm3v-mu-12" edge="1">
          <mxGeometry relative="1" as="geometry">
            <mxPoint x="440" y="380" as="targetPoint" />
          </mxGeometry>
        </mxCell>
        <mxCell id="qtCz4snrWuHsNMm3v-mu-7" value="&lt;div style=&quot;text-align: center&quot;&gt;&lt;br&gt;&lt;/div&gt;&lt;div style=&quot;text-align: justify&quot;&gt;&lt;/div&gt;" style="ellipse;whiteSpace=wrap;html=1;fontSize=14;align=left;" parent="Zr-BWSJJQ4udQxX_Z5t2-1" vertex="1">
          <mxGeometry x="330" y="220" width="140" height="50" as="geometry" />
        </mxCell>
        <mxCell id="qtCz4snrWuHsNMm3v-mu-56" style="edgeStyle=orthogonalEdgeStyle;rounded=0;orthogonalLoop=1;jettySize=auto;html=1;exitX=0.5;exitY=1;exitDx=0;exitDy=0;entryX=0.5;entryY=0;entryDx=0;entryDy=0;fontSize=14;" parent="Zr-BWSJJQ4udQxX_Z5t2-1" target="qtCz4snrWuHsNMm3v-mu-31" edge="1">
          <mxGeometry relative="1" as="geometry">
            <mxPoint x="400" y="330" as="sourcePoint" />
          </mxGeometry>
        </mxCell>
        <mxCell id="qtCz4snrWuHsNMm3v-mu-12" value="" style="shape=parallelogram;perimeter=parallelogramPerimeter;whiteSpace=wrap;html=1;fixedSize=1;fontSize=14;align=left;" parent="Zr-BWSJJQ4udQxX_Z5t2-1" vertex="1">
          <mxGeometry x="240" y="290" width="320" height="50" as="geometry" />
        </mxCell>
        <mxCell id="qtCz4snrWuHsNMm3v-mu-13" value="sublime_text_build_4l21_x64_setup.exe&lt;br&gt;(sfx)" style="text;html=1;resizable=0;autosize=1;align=center;verticalAlign=middle;points=[];fillColor=none;strokeColor=none;rounded=0;fontSize=14;" parent="Zr-BWSJJQ4udQxX_Z5t2-1" vertex="1">
          <mxGeometry x="270" y="295" width="260" height="40" as="geometry" />
        </mxCell>
        <mxCell id="qtCz4snrWuHsNMm3v-mu-28" value="&lt;b&gt;&lt;font style=&quot;font-size: 24px&quot;&gt;Weaponization&lt;/font&gt;&lt;/b&gt;" style="text;html=1;resizable=0;autosize=1;align=center;verticalAlign=middle;points=[];fillColor=none;strokeColor=none;rounded=0;fontSize=14;" parent="Zr-BWSJJQ4udQxX_Z5t2-1" vertex="1">
          <mxGeometry x="315" y="110" width="180" height="30" as="geometry" />
        </mxCell>
        <mxCell id="qtCz4snrWuHsNMm3v-mu-29" value="&lt;font style=&quot;font-size: 24px&quot;&gt;&lt;b&gt;Delivery&lt;/b&gt;&lt;/font&gt;" style="text;html=1;resizable=0;autosize=1;align=center;verticalAlign=middle;points=[];fillColor=none;strokeColor=none;rounded=0;fontFamily=Helvetica;fontSize=14;" parent="Zr-BWSJJQ4udQxX_Z5t2-1" vertex="1">
          <mxGeometry x="410" y="350" width="110" height="30" as="geometry" />
        </mxCell>
        <mxCell id="qtCz4snrWuHsNMm3v-mu-30" style="edgeStyle=orthogonalEdgeStyle;rounded=0;orthogonalLoop=1;jettySize=auto;html=1;exitX=0.5;exitY=1;exitDx=0;exitDy=0;entryX=0.5;entryY=0;entryDx=0;entryDy=0;fontFamily=Helvetica;fontSize=14;" parent="Zr-BWSJJQ4udQxX_Z5t2-1" source="qtCz4snrWuHsNMm3v-mu-31" target="qtCz4snrWuHsNMm3v-mu-43" edge="1">
          <mxGeometry relative="1" as="geometry" />
        </mxCell>
        <mxCell id="qtCz4snrWuHsNMm3v-mu-31" value="" style="rounded=0;whiteSpace=wrap;html=1;fontFamily=Helvetica;fontSize=24;align=left;" parent="Zr-BWSJJQ4udQxX_Z5t2-1" vertex="1">
          <mxGeometry x="310" y="390" width="180" height="50" as="geometry" />
        </mxCell>
        <mxCell id="qtCz4snrWuHsNMm3v-mu-59" style="edgeStyle=orthogonalEdgeStyle;rounded=0;orthogonalLoop=1;jettySize=auto;html=1;exitX=0;exitY=0.5;exitDx=0;exitDy=0;entryX=1;entryY=0.5;entryDx=0;entryDy=0;fontSize=14;" parent="Zr-BWSJJQ4udQxX_Z5t2-1" source="qtCz4snrWuHsNMm3v-mu-39" target="qtCz4snrWuHsNMm3v-mu-31" edge="1">
          <mxGeometry relative="1" as="geometry" />
        </mxCell>
        <mxCell id="qtCz4snrWuHsNMm3v-mu-39" value="Email: &quot;Check the new Order&amp;nbsp;&lt;br&gt;From: Boss&quot;" style="rounded=0;whiteSpace=wrap;html=1;fontFamily=Helvetica;fontSize=14;align=center;" parent="Zr-BWSJJQ4udQxX_Z5t2-1" vertex="1">
          <mxGeometry x="520" y="390" width="200" height="50" as="geometry" />
        </mxCell>
        <mxCell id="qtCz4snrWuHsNMm3v-mu-41" value="18.169.31.13/corporation&lt;br&gt;(site-clone)" style="text;html=1;resizable=0;autosize=1;align=center;verticalAlign=middle;points=[];fillColor=none;strokeColor=none;rounded=0;fontFamily=Helvetica;fontSize=14;" parent="Zr-BWSJJQ4udQxX_Z5t2-1" vertex="1">
          <mxGeometry x="315" y="395" width="170" height="40" as="geometry" />
        </mxCell>
        <mxCell id="qtCz4snrWuHsNMm3v-mu-62" style="edgeStyle=orthogonalEdgeStyle;rounded=0;orthogonalLoop=1;jettySize=auto;html=1;exitX=0.5;exitY=1;exitDx=0;exitDy=0;entryX=0.5;entryY=0;entryDx=0;entryDy=0;fontSize=24;" parent="Zr-BWSJJQ4udQxX_Z5t2-1" source="qtCz4snrWuHsNMm3v-mu-43" target="qtCz4snrWuHsNMm3v-mu-61" edge="1">
          <mxGeometry relative="1" as="geometry" />
        </mxCell>
        <mxCell id="qtCz4snrWuHsNMm3v-mu-43" value="&lt;div&gt;&lt;span&gt;Order: Download and&lt;/span&gt;&lt;/div&gt;&lt;div&gt;&lt;span&gt;install the app&lt;/span&gt;&lt;/div&gt;" style="rounded=0;whiteSpace=wrap;html=1;fontFamily=Helvetica;fontSize=14;align=center;" parent="Zr-BWSJJQ4udQxX_Z5t2-1" vertex="1">
          <mxGeometry x="310" y="470" width="180" height="50" as="geometry" />
        </mxCell>
        <mxCell id="qtCz4snrWuHsNMm3v-mu-48" style="edgeStyle=orthogonalEdgeStyle;rounded=0;orthogonalLoop=1;jettySize=auto;html=1;exitX=1;exitY=0.5;exitDx=0;exitDy=0;entryX=0;entryY=0.5;entryDx=0;entryDy=0;fontSize=14;" parent="Zr-BWSJJQ4udQxX_Z5t2-1" source="qtCz4snrWuHsNMm3v-mu-46" target="qtCz4snrWuHsNMm3v-mu-47" edge="1">
          <mxGeometry relative="1" as="geometry" />
        </mxCell>
        <mxCell id="qtCz4snrWuHsNMm3v-mu-46" value="&lt;font style=&quot;font-size: 14px&quot;&gt;crypt.py&lt;/font&gt;" style="rounded=0;whiteSpace=wrap;html=1;" parent="Zr-BWSJJQ4udQxX_Z5t2-1" vertex="1">
          <mxGeometry x="10" y="148.75" width="90" height="47.5" as="geometry" />
        </mxCell>
        <mxCell id="qtCz4snrWuHsNMm3v-mu-51" style="edgeStyle=orthogonalEdgeStyle;rounded=0;orthogonalLoop=1;jettySize=auto;html=1;exitX=1;exitY=0.5;exitDx=0;exitDy=0;entryX=0;entryY=0.5;entryDx=0;entryDy=0;fontSize=14;" parent="Zr-BWSJJQ4udQxX_Z5t2-1" source="qtCz4snrWuHsNMm3v-mu-47" target="qtCz4snrWuHsNMm3v-mu-1" edge="1">
          <mxGeometry relative="1" as="geometry" />
        </mxCell>
        <mxCell id="qtCz4snrWuHsNMm3v-mu-47" value="pyinstaller" style="ellipse;whiteSpace=wrap;html=1;fontSize=14;" parent="Zr-BWSJJQ4udQxX_Z5t2-1" vertex="1">
          <mxGeometry x="130" y="145" width="102.5" height="55" as="geometry" />
        </mxCell>
        <mxCell id="qtCz4snrWuHsNMm3v-mu-52" value="&lt;font style=&quot;font-size: 14px&quot;&gt;WinRAR&lt;/font&gt;" style="text;html=1;strokeColor=none;fillColor=none;align=center;verticalAlign=middle;whiteSpace=wrap;rounded=0;fontSize=14;" parent="Zr-BWSJJQ4udQxX_Z5t2-1" vertex="1">
          <mxGeometry x="370" y="230" width="60" height="30" as="geometry" />
        </mxCell>
        <mxCell id="qtCz4snrWuHsNMm3v-mu-60" value="&lt;font style=&quot;font-size: 24px&quot;&gt;&lt;b&gt;Exploitation&lt;/b&gt;&lt;/font&gt;" style="text;html=1;strokeColor=none;fillColor=none;align=center;verticalAlign=middle;whiteSpace=wrap;rounded=0;fontSize=14;" parent="Zr-BWSJJQ4udQxX_Z5t2-1" vertex="1">
          <mxGeometry x="410" y="530" width="150" height="40" as="geometry" />
        </mxCell>
        <mxCell id="Uyt8YefSHmJEeQqVW4W0-3" style="edgeStyle=orthogonalEdgeStyle;rounded=0;orthogonalLoop=1;jettySize=auto;html=1;exitX=0;exitY=0.5;exitDx=0;exitDy=0;entryX=0;entryY=0.5;entryDx=0;entryDy=0;fontSize=14;" parent="Zr-BWSJJQ4udQxX_Z5t2-1" source="qtCz4snrWuHsNMm3v-mu-61" target="qtCz4snrWuHsNMm3v-mu-69" edge="1">
          <mxGeometry relative="1" as="geometry">
            <Array as="points">
              <mxPoint x="200" y="595" />
              <mxPoint x="200" y="660" />
            </Array>
          </mxGeometry>
        </mxCell>
        <mxCell id="Uyt8YefSHmJEeQqVW4W0-4" style="edgeStyle=orthogonalEdgeStyle;rounded=0;orthogonalLoop=1;jettySize=auto;html=1;exitX=0;exitY=0.5;exitDx=0;exitDy=0;entryX=0;entryY=0.5;entryDx=0;entryDy=0;fontSize=14;" parent="Zr-BWSJJQ4udQxX_Z5t2-1" source="qtCz4snrWuHsNMm3v-mu-61" target="qtCz4snrWuHsNMm3v-mu-67" edge="1">
          <mxGeometry relative="1" as="geometry">
            <Array as="points">
              <mxPoint x="200" y="595" />
              <mxPoint x="200" y="730" />
            </Array>
          </mxGeometry>
        </mxCell>
        <mxCell id="Uyt8YefSHmJEeQqVW4W0-6" style="edgeStyle=orthogonalEdgeStyle;rounded=0;orthogonalLoop=1;jettySize=auto;html=1;exitX=1;exitY=0.5;exitDx=0;exitDy=0;entryX=0;entryY=0;entryDx=20;entryDy=190;entryPerimeter=0;fontSize=14;" parent="Zr-BWSJJQ4udQxX_Z5t2-1" source="qtCz4snrWuHsNMm3v-mu-61" target="qtCz4snrWuHsNMm3v-mu-64" edge="1">
          <mxGeometry relative="1" as="geometry" />
        </mxCell>
        <mxCell id="qtCz4snrWuHsNMm3v-mu-61" value="" style="shape=parallelogram;perimeter=parallelogramPerimeter;whiteSpace=wrap;html=1;fixedSize=1;fontSize=24;align=center;" parent="Zr-BWSJJQ4udQxX_Z5t2-1" vertex="1">
          <mxGeometry x="250" y="575" width="300" height="40" as="geometry" />
        </mxCell>
        <mxCell id="qtCz4snrWuHsNMm3v-mu-63" value="&lt;span style=&quot;font-size: 14px&quot;&gt;sublime_text_build_4l21_x64_setup.exe&lt;/span&gt;" style="text;html=1;strokeColor=none;fillColor=none;align=center;verticalAlign=middle;whiteSpace=wrap;rounded=0;fontSize=24;" parent="Zr-BWSJJQ4udQxX_Z5t2-1" vertex="1">
          <mxGeometry x="265" y="575" width="270" height="30" as="geometry" />
        </mxCell>
        <mxCell id="Uyt8YefSHmJEeQqVW4W0-7" style="edgeStyle=orthogonalEdgeStyle;rounded=0;orthogonalLoop=1;jettySize=auto;html=1;exitX=0;exitY=0;exitDx=40;exitDy=85;exitPerimeter=0;entryX=1;entryY=0.5;entryDx=0;entryDy=0;fontSize=14;" parent="Zr-BWSJJQ4udQxX_Z5t2-1" source="qtCz4snrWuHsNMm3v-mu-64" target="qtCz4snrWuHsNMm3v-mu-69" edge="1">
          <mxGeometry relative="1" as="geometry" />
        </mxCell>
        <mxCell id="Uyt8YefSHmJEeQqVW4W0-8" style="edgeStyle=orthogonalEdgeStyle;rounded=0;orthogonalLoop=1;jettySize=auto;html=1;exitX=0;exitY=0;exitDx=40;exitDy=85;exitPerimeter=0;entryX=1;entryY=0.5;entryDx=0;entryDy=0;fontSize=14;" parent="Zr-BWSJJQ4udQxX_Z5t2-1" source="qtCz4snrWuHsNMm3v-mu-64" target="qtCz4snrWuHsNMm3v-mu-67" edge="1">
          <mxGeometry relative="1" as="geometry" />
        </mxCell>
        <mxCell id="qtCz4snrWuHsNMm3v-mu-64" value="Run as administrator" style="shape=callout;whiteSpace=wrap;html=1;perimeter=calloutPerimeter;fontSize=14;align=center;position2=0.5;size=20;position=0.25;base=20;direction=south;" parent="Zr-BWSJJQ4udQxX_Z5t2-1" vertex="1">
          <mxGeometry x="570" y="575" width="190" height="40" as="geometry" />
        </mxCell>
        <mxCell id="Uyt8YefSHmJEeQqVW4W0-0" style="edgeStyle=orthogonalEdgeStyle;rounded=0;orthogonalLoop=1;jettySize=auto;html=1;exitX=0.5;exitY=1;exitDx=0;exitDy=0;entryX=0.5;entryY=0;entryDx=0;entryDy=0;fontSize=14;" parent="Zr-BWSJJQ4udQxX_Z5t2-1" source="qtCz4snrWuHsNMm3v-mu-67" target="qtCz4snrWuHsNMm3v-mu-71" edge="1">
          <mxGeometry relative="1" as="geometry" />
        </mxCell>
        <mxCell id="qtCz4snrWuHsNMm3v-mu-67" value="runs&amp;nbsp;&lt;span&gt;sublime_text_build_412l_x64_setup.exe&lt;br&gt;(crypter)&lt;br&gt;&lt;/span&gt;" style="rounded=0;whiteSpace=wrap;html=1;fontSize=14;align=center;" parent="Zr-BWSJJQ4udQxX_Z5t2-1" vertex="1">
          <mxGeometry x="240" y="705" width="320" height="50" as="geometry" />
        </mxCell>
        <mxCell id="qtCz4snrWuHsNMm3v-mu-69" value="runs&amp;nbsp;&lt;span&gt;sublime_text_build_4121_x64_setup.exe&lt;br&gt;(true installer)&lt;br&gt;&lt;/span&gt;" style="rounded=0;whiteSpace=wrap;html=1;fontSize=14;align=center;" parent="Zr-BWSJJQ4udQxX_Z5t2-1" vertex="1">
          <mxGeometry x="240" y="635" width="320" height="50" as="geometry" />
        </mxCell>
        <mxCell id="qtCz4snrWuHsNMm3v-mu-71" value="encpypts files on disks:&lt;br&gt;C, D, E, F, G" style="shape=parallelogram;perimeter=parallelogramPerimeter;whiteSpace=wrap;html=1;fixedSize=1;fontSize=14;align=center;" parent="Zr-BWSJJQ4udQxX_Z5t2-1" vertex="1">
          <mxGeometry x="307.5" y="785" width="185" height="50" as="geometry" />
        </mxCell>
        <mxCell id="Uyt8YefSHmJEeQqVW4W0-9" value="&lt;font style=&quot;font-size: 36px&quot;&gt;&lt;b&gt;Scheme of current attack&lt;/b&gt;&lt;/font&gt;" style="text;html=1;strokeColor=none;fillColor=none;align=center;verticalAlign=middle;whiteSpace=wrap;rounded=0;fontSize=14;" parent="Zr-BWSJJQ4udQxX_Z5t2-1" vertex="1">
          <mxGeometry x="200" y="30" width="450" height="50" as="geometry" />
        </mxCell>
      </root>
    </mxGraphModel>
  </diagram>
  <diagram id="XNRSv7yBDuM0zDE2_rpV" name="Page-3">
    <mxGraphModel dx="1422" dy="772" grid="1" gridSize="10" guides="1" tooltips="1" connect="1" arrows="1" fold="1" page="1" pageScale="1" pageWidth="850" pageHeight="1100" math="0" shadow="0">
      <root>
        <mxCell id="Con5ghdSicjrldXChjEs-0" />
        <mxCell id="Con5ghdSicjrldXChjEs-1" parent="Con5ghdSicjrldXChjEs-0" />
        <mxCell id="DJmcEflKPGHg1muGUyP2-0" value="" style="edgeStyle=orthogonalEdgeStyle;rounded=0;orthogonalLoop=1;jettySize=auto;html=1;fontSize=14;entryX=0.5;entryY=0;entryDx=0;entryDy=0;" edge="1" parent="Con5ghdSicjrldXChjEs-1" source="DJmcEflKPGHg1muGUyP2-1" target="DJmcEflKPGHg1muGUyP2-7">
          <mxGeometry relative="1" as="geometry">
            <mxPoint x="430" y="270" as="targetPoint" />
          </mxGeometry>
        </mxCell>
        <mxCell id="DJmcEflKPGHg1muGUyP2-1" value="&lt;span style=&quot;font-size: 20px&quot;&gt;payload.exe&lt;/span&gt;" style="rounded=0;whiteSpace=wrap;html=1;fontSize=14;align=center;" vertex="1" parent="Con5ghdSicjrldXChjEs-1">
          <mxGeometry x="340" y="145" width="120" height="35" as="geometry" />
        </mxCell>
        <mxCell id="DJmcEflKPGHg1muGUyP2-3" style="edgeStyle=orthogonalEdgeStyle;rounded=0;orthogonalLoop=1;jettySize=auto;html=1;exitX=0.5;exitY=1;exitDx=0;exitDy=0;entryX=1;entryY=0.5;entryDx=0;entryDy=0;fontSize=14;" edge="1" parent="Con5ghdSicjrldXChjEs-1" source="DJmcEflKPGHg1muGUyP2-4" target="DJmcEflKPGHg1muGUyP2-7">
          <mxGeometry relative="1" as="geometry" />
        </mxCell>
        <mxCell id="DJmcEflKPGHg1muGUyP2-4" value="&lt;font style=&quot;font-size: 20px&quot;&gt;app_installer.exe&lt;/font&gt;" style="rounded=1;whiteSpace=wrap;html=1;fontSize=14;align=center;" vertex="1" parent="Con5ghdSicjrldXChjEs-1">
          <mxGeometry x="470" y="145" width="190" height="35" as="geometry" />
        </mxCell>
        <mxCell id="DJmcEflKPGHg1muGUyP2-6" style="edgeStyle=orthogonalEdgeStyle;rounded=0;orthogonalLoop=1;jettySize=auto;html=1;fontSize=14;" edge="1" parent="Con5ghdSicjrldXChjEs-1" source="DJmcEflKPGHg1muGUyP2-7" target="DJmcEflKPGHg1muGUyP2-9">
          <mxGeometry relative="1" as="geometry">
            <mxPoint x="440" y="370" as="targetPoint" />
          </mxGeometry>
        </mxCell>
        <mxCell id="DJmcEflKPGHg1muGUyP2-7" value="&lt;div style=&quot;text-align: center&quot;&gt;&lt;br&gt;&lt;/div&gt;&lt;div style=&quot;text-align: justify&quot;&gt;&lt;/div&gt;" style="ellipse;whiteSpace=wrap;html=1;fontSize=14;align=left;" vertex="1" parent="Con5ghdSicjrldXChjEs-1">
          <mxGeometry x="330" y="200" width="140" height="50" as="geometry" />
        </mxCell>
        <mxCell id="DJmcEflKPGHg1muGUyP2-44" style="edgeStyle=orthogonalEdgeStyle;rounded=0;orthogonalLoop=1;jettySize=auto;html=1;exitX=0.5;exitY=1;exitDx=0;exitDy=0;fontSize=18;" edge="1" parent="Con5ghdSicjrldXChjEs-1" source="DJmcEflKPGHg1muGUyP2-9" target="DJmcEflKPGHg1muGUyP2-19">
          <mxGeometry relative="1" as="geometry" />
        </mxCell>
        <mxCell id="DJmcEflKPGHg1muGUyP2-9" value="&lt;font style=&quot;font-size: 20px&quot;&gt;sfx_trojan.exe&lt;/font&gt;" style="shape=parallelogram;perimeter=parallelogramPerimeter;whiteSpace=wrap;html=1;fixedSize=1;fontSize=14;align=center;" vertex="1" parent="Con5ghdSicjrldXChjEs-1">
          <mxGeometry x="100" y="210" width="180" height="30" as="geometry" />
        </mxCell>
        <mxCell id="DJmcEflKPGHg1muGUyP2-11" value="&lt;b&gt;&lt;font style=&quot;font-size: 24px&quot;&gt;Weaponization&lt;/font&gt;&lt;/b&gt;" style="text;html=1;resizable=0;autosize=1;align=center;verticalAlign=middle;points=[];fillColor=none;strokeColor=none;rounded=0;fontSize=14;" vertex="1" parent="Con5ghdSicjrldXChjEs-1">
          <mxGeometry x="315" y="110" width="180" height="30" as="geometry" />
        </mxCell>
        <mxCell id="DJmcEflKPGHg1muGUyP2-12" value="&lt;font style=&quot;font-size: 24px&quot;&gt;&lt;b&gt;Delivery&lt;/b&gt;&lt;/font&gt;" style="text;html=1;resizable=0;autosize=1;align=center;verticalAlign=middle;points=[];fillColor=none;strokeColor=none;rounded=0;fontFamily=Helvetica;fontSize=14;" vertex="1" parent="Con5ghdSicjrldXChjEs-1">
          <mxGeometry x="345" y="260" width="110" height="30" as="geometry" />
        </mxCell>
        <mxCell id="DJmcEflKPGHg1muGUyP2-43" style="edgeStyle=orthogonalEdgeStyle;rounded=0;orthogonalLoop=1;jettySize=auto;html=1;exitX=0;exitY=0.5;exitDx=0;exitDy=0;entryX=1;entryY=0.5;entryDx=0;entryDy=0;fontSize=18;" edge="1" parent="Con5ghdSicjrldXChjEs-1" source="DJmcEflKPGHg1muGUyP2-14" target="DJmcEflKPGHg1muGUyP2-19">
          <mxGeometry relative="1" as="geometry" />
        </mxCell>
        <mxCell id="DJmcEflKPGHg1muGUyP2-14" value="&lt;font style=&quot;font-size: 20px&quot;&gt;site-clone&lt;/font&gt;" style="rounded=0;whiteSpace=wrap;html=1;fontFamily=Helvetica;fontSize=24;align=center;" vertex="1" parent="Con5ghdSicjrldXChjEs-1">
          <mxGeometry x="350" y="300" width="100" height="30" as="geometry" />
        </mxCell>
        <mxCell id="DJmcEflKPGHg1muGUyP2-15" style="edgeStyle=orthogonalEdgeStyle;rounded=0;orthogonalLoop=1;jettySize=auto;html=1;exitX=0;exitY=0.5;exitDx=0;exitDy=0;entryX=1;entryY=0.5;entryDx=0;entryDy=0;fontSize=14;" edge="1" parent="Con5ghdSicjrldXChjEs-1" source="DJmcEflKPGHg1muGUyP2-16" target="DJmcEflKPGHg1muGUyP2-14">
          <mxGeometry relative="1" as="geometry" />
        </mxCell>
        <mxCell id="DJmcEflKPGHg1muGUyP2-16" value="&lt;font style=&quot;font-size: 20px&quot;&gt;Email from &quot;Boss&quot;&lt;/font&gt;" style="rounded=0;whiteSpace=wrap;html=1;fontFamily=Helvetica;fontSize=14;align=center;" vertex="1" parent="Con5ghdSicjrldXChjEs-1">
          <mxGeometry x="490" y="300" width="170" height="30" as="geometry" />
        </mxCell>
        <mxCell id="DJmcEflKPGHg1muGUyP2-66" style="edgeStyle=orthogonalEdgeStyle;rounded=0;orthogonalLoop=1;jettySize=auto;html=1;exitX=0.5;exitY=1;exitDx=0;exitDy=0;entryX=0;entryY=0.5;entryDx=0;entryDy=0;fontSize=20;" edge="1" parent="Con5ghdSicjrldXChjEs-1" source="DJmcEflKPGHg1muGUyP2-19" target="DJmcEflKPGHg1muGUyP2-29">
          <mxGeometry relative="1" as="geometry">
            <Array as="points">
              <mxPoint x="190" y="395" />
            </Array>
          </mxGeometry>
        </mxCell>
        <mxCell id="DJmcEflKPGHg1muGUyP2-19" value="&lt;div&gt;&lt;font style=&quot;font-size: 20px&quot;&gt;Order: &quot;Install this&quot;&lt;/font&gt;&lt;/div&gt;" style="rounded=0;whiteSpace=wrap;html=1;fontFamily=Helvetica;fontSize=14;align=center;" vertex="1" parent="Con5ghdSicjrldXChjEs-1">
          <mxGeometry x="100" y="300" width="180" height="30" as="geometry" />
        </mxCell>
        <mxCell id="DJmcEflKPGHg1muGUyP2-63" style="edgeStyle=orthogonalEdgeStyle;rounded=0;orthogonalLoop=1;jettySize=auto;html=1;exitX=1;exitY=0.5;exitDx=0;exitDy=0;entryX=0;entryY=0.5;entryDx=0;entryDy=0;fontSize=20;" edge="1" parent="Con5ghdSicjrldXChjEs-1" source="DJmcEflKPGHg1muGUyP2-21" target="DJmcEflKPGHg1muGUyP2-23">
          <mxGeometry relative="1" as="geometry" />
        </mxCell>
        <mxCell id="DJmcEflKPGHg1muGUyP2-21" value="&lt;font style=&quot;font-size: 20px&quot;&gt;crypt.py&lt;/font&gt;" style="rounded=0;whiteSpace=wrap;html=1;" vertex="1" parent="Con5ghdSicjrldXChjEs-1">
          <mxGeometry x="100" y="146.88" width="90" height="31.25" as="geometry" />
        </mxCell>
        <mxCell id="DJmcEflKPGHg1muGUyP2-22" style="edgeStyle=orthogonalEdgeStyle;rounded=0;orthogonalLoop=1;jettySize=auto;html=1;exitX=1;exitY=0.5;exitDx=0;exitDy=0;entryX=0;entryY=0.5;entryDx=0;entryDy=0;fontSize=14;" edge="1" parent="Con5ghdSicjrldXChjEs-1" source="DJmcEflKPGHg1muGUyP2-23" target="DJmcEflKPGHg1muGUyP2-1">
          <mxGeometry relative="1" as="geometry" />
        </mxCell>
        <mxCell id="DJmcEflKPGHg1muGUyP2-23" value="&lt;font style=&quot;font-size: 20px&quot;&gt;pyinstaller&lt;/font&gt;" style="ellipse;whiteSpace=wrap;html=1;fontSize=14;" vertex="1" parent="Con5ghdSicjrldXChjEs-1">
          <mxGeometry x="210" y="140" width="112.5" height="45" as="geometry" />
        </mxCell>
        <mxCell id="DJmcEflKPGHg1muGUyP2-25" value="&lt;font style=&quot;font-size: 24px&quot;&gt;&lt;b&gt;Exploitation&lt;/b&gt;&lt;/font&gt;" style="text;html=1;strokeColor=none;fillColor=none;align=center;verticalAlign=middle;whiteSpace=wrap;rounded=0;fontSize=14;" vertex="1" parent="Con5ghdSicjrldXChjEs-1">
          <mxGeometry x="325" y="340" width="150" height="40" as="geometry" />
        </mxCell>
        <mxCell id="DJmcEflKPGHg1muGUyP2-65" style="edgeStyle=orthogonalEdgeStyle;rounded=0;orthogonalLoop=1;jettySize=auto;html=1;exitX=1;exitY=0.5;exitDx=0;exitDy=0;entryX=0;entryY=0;entryDx=15;entryDy=220;entryPerimeter=0;fontSize=20;" edge="1" parent="Con5ghdSicjrldXChjEs-1" source="DJmcEflKPGHg1muGUyP2-29" target="DJmcEflKPGHg1muGUyP2-33">
          <mxGeometry relative="1" as="geometry" />
        </mxCell>
        <mxCell id="DJmcEflKPGHg1muGUyP2-69" style="edgeStyle=orthogonalEdgeStyle;rounded=0;orthogonalLoop=1;jettySize=auto;html=1;exitX=0.5;exitY=1;exitDx=0;exitDy=0;entryX=0;entryY=0.5;entryDx=0;entryDy=0;fontSize=20;" edge="1" parent="Con5ghdSicjrldXChjEs-1" source="DJmcEflKPGHg1muGUyP2-29" target="DJmcEflKPGHg1muGUyP2-36">
          <mxGeometry relative="1" as="geometry">
            <Array as="points">
              <mxPoint x="298" y="435" />
            </Array>
          </mxGeometry>
        </mxCell>
        <mxCell id="DJmcEflKPGHg1muGUyP2-70" style="edgeStyle=orthogonalEdgeStyle;rounded=0;orthogonalLoop=1;jettySize=auto;html=1;exitX=0.5;exitY=1;exitDx=0;exitDy=0;entryX=0;entryY=0.5;entryDx=0;entryDy=0;fontSize=20;" edge="1" parent="Con5ghdSicjrldXChjEs-1" source="DJmcEflKPGHg1muGUyP2-29" target="DJmcEflKPGHg1muGUyP2-35">
          <mxGeometry relative="1" as="geometry" />
        </mxCell>
        <mxCell id="DJmcEflKPGHg1muGUyP2-29" value="&lt;font style=&quot;font-size: 20px&quot;&gt;sfx_trojan.exe&lt;/font&gt;" style="shape=parallelogram;perimeter=parallelogramPerimeter;whiteSpace=wrap;html=1;fixedSize=1;fontSize=24;align=center;" vertex="1" parent="Con5ghdSicjrldXChjEs-1">
          <mxGeometry x="210" y="380" width="175" height="30" as="geometry" />
        </mxCell>
        <mxCell id="DJmcEflKPGHg1muGUyP2-67" style="edgeStyle=orthogonalEdgeStyle;rounded=0;orthogonalLoop=1;jettySize=auto;html=1;exitX=0;exitY=0;exitDx=30;exitDy=100;exitPerimeter=0;entryX=1;entryY=0.5;entryDx=0;entryDy=0;fontSize=20;" edge="1" parent="Con5ghdSicjrldXChjEs-1" source="DJmcEflKPGHg1muGUyP2-33" target="DJmcEflKPGHg1muGUyP2-35">
          <mxGeometry relative="1" as="geometry" />
        </mxCell>
        <mxCell id="DJmcEflKPGHg1muGUyP2-71" style="edgeStyle=orthogonalEdgeStyle;rounded=0;orthogonalLoop=1;jettySize=auto;html=1;exitX=0;exitY=0;exitDx=30;exitDy=100;exitPerimeter=0;entryX=1;entryY=0.5;entryDx=0;entryDy=0;fontSize=20;" edge="1" parent="Con5ghdSicjrldXChjEs-1" source="DJmcEflKPGHg1muGUyP2-33" target="DJmcEflKPGHg1muGUyP2-36">
          <mxGeometry relative="1" as="geometry">
            <Array as="points">
              <mxPoint x="520" y="435" />
            </Array>
          </mxGeometry>
        </mxCell>
        <mxCell id="DJmcEflKPGHg1muGUyP2-33" value="&lt;font style=&quot;font-size: 20px&quot;&gt;Run as administrator&lt;/font&gt;" style="shape=callout;whiteSpace=wrap;html=1;perimeter=calloutPerimeter;fontSize=14;align=center;position2=0.5;size=20;position=0.25;base=13;direction=south;" vertex="1" parent="Con5ghdSicjrldXChjEs-1">
          <mxGeometry x="400" y="380" width="220" height="30" as="geometry" />
        </mxCell>
        <mxCell id="DJmcEflKPGHg1muGUyP2-34" style="edgeStyle=orthogonalEdgeStyle;rounded=0;orthogonalLoop=1;jettySize=auto;html=1;exitX=0.5;exitY=1;exitDx=0;exitDy=0;entryX=0.5;entryY=0;entryDx=0;entryDy=0;fontSize=14;" edge="1" parent="Con5ghdSicjrldXChjEs-1" source="DJmcEflKPGHg1muGUyP2-35" target="DJmcEflKPGHg1muGUyP2-37">
          <mxGeometry relative="1" as="geometry" />
        </mxCell>
        <mxCell id="DJmcEflKPGHg1muGUyP2-35" value="&lt;font style=&quot;font-size: 20px&quot;&gt;payload.exe&lt;/font&gt;&lt;span&gt;&lt;br&gt;&lt;/span&gt;" style="rounded=0;whiteSpace=wrap;html=1;fontSize=14;align=center;" vertex="1" parent="Con5ghdSicjrldXChjEs-1">
          <mxGeometry x="330" y="460" width="160" height="30" as="geometry" />
        </mxCell>
        <mxCell id="DJmcEflKPGHg1muGUyP2-36" value="&lt;font style=&quot;font-size: 20px&quot;&gt;app_installer.exe&lt;/font&gt;&lt;span&gt;&lt;br&gt;&lt;/span&gt;" style="rounded=0;whiteSpace=wrap;html=1;fontSize=14;align=center;" vertex="1" parent="Con5ghdSicjrldXChjEs-1">
          <mxGeometry x="330" y="420" width="160" height="30" as="geometry" />
        </mxCell>
        <mxCell id="DJmcEflKPGHg1muGUyP2-37" value="&lt;font&gt;&lt;font style=&quot;font-size: 20px&quot;&gt;encpypts files&lt;/font&gt;&lt;br&gt;&lt;/font&gt;" style="shape=parallelogram;perimeter=parallelogramPerimeter;whiteSpace=wrap;html=1;fixedSize=1;fontSize=14;align=center;" vertex="1" parent="Con5ghdSicjrldXChjEs-1">
          <mxGeometry x="330" y="510" width="160" height="30" as="geometry" />
        </mxCell>
        <mxCell id="DJmcEflKPGHg1muGUyP2-38" value="&lt;font style=&quot;font-size: 36px&quot;&gt;Scheme of current attack&lt;/font&gt;" style="text;html=1;strokeColor=none;fillColor=none;align=center;verticalAlign=middle;whiteSpace=wrap;rounded=0;fontSize=14;" vertex="1" parent="Con5ghdSicjrldXChjEs-1">
          <mxGeometry x="180" y="50" width="450" height="50" as="geometry" />
        </mxCell>
        <mxCell id="DJmcEflKPGHg1muGUyP2-55" value="WinRAR" style="text;html=1;strokeColor=none;fillColor=none;align=center;verticalAlign=middle;whiteSpace=wrap;rounded=0;fontSize=20;" vertex="1" parent="Con5ghdSicjrldXChjEs-1">
          <mxGeometry x="370" y="210" width="60" height="30" as="geometry" />
        </mxCell>
      </root>
    </mxGraphModel>
  </diagram>
</mxfile>
